<?xml version="1.0" encoding="UTF-8" standalone="no"?>
<svg
   xmlns:dc="http://purl.org/dc/elements/1.1/"
   xmlns:cc="http://creativecommons.org/ns#"
   xmlns:rdf="http://www.w3.org/1999/02/22-rdf-syntax-ns#"
   xmlns:svg="http://www.w3.org/2000/svg"
   xmlns="http://www.w3.org/2000/svg"
   xmlns:sodipodi="http://sodipodi.sourceforge.net/DTD/sodipodi-0.dtd"
   xmlns:inkscape="http://www.inkscape.org/namespaces/inkscape"
   id="svg36367"
   version="1.1"
   viewBox="0 0 143.27187 95.646869"
   height="95.646866mm"
   width="143.27187mm"
   sodipodi:docname="3d.svg"
   inkscape:version="0.92.3 (2405546, 2018-03-11)">
  <sodipodi:namedview
     pagecolor="#ffffff"
     bordercolor="#666666"
     borderopacity="1"
     objecttolerance="10"
     gridtolerance="10"
     guidetolerance="10"
     inkscape:pageopacity="0"
     inkscape:pageshadow="2"
     inkscape:window-width="757"
     inkscape:window-height="480"
     id="namedview2165"
     showgrid="false"
     inkscape:zoom="0.43582644"
     inkscape:cx="270.74998"
     inkscape:cy="180.75"
     inkscape:window-x="67"
     inkscape:window-y="27"
     inkscape:window-maximized="0"
     inkscape:current-layer="svg36367" />
  <defs
     id="defs36361" />
  <metadata
     id="metadata36364">
    <rdf:RDF>
      <cc:Work
         rdf:about="">
        <dc:format>image/svg+xml</dc:format>
        <dc:type
           rdf:resource="http://purl.org/dc/dcmitype/StillImage" />
        <dc:title />
      </cc:Work>
    </rdf:RDF>
  </metadata>
  <g
     transform="rotate(-90,62.543116,176.84809)"
     id="layer1">
    <g
       id="g3042"
       transform="matrix(0.26458333,0,0,0.26458333,143.94277,-21.059081)"
       style="display:inline">
      <rect
         style="fill:#ffffff;stroke:#000000;stroke-width:2.5;stroke-miterlimit:4;stroke-dasharray:none"
         id="rect6472-03"
         width="359"
         height="539"
         x="0.5"
         y="512.86218"
         ry="29.944447"
         rx="29.944447" />
      <path
         d="m 30,542.36208 c -5.54,0 -10,4.46 -10,10 v 5 h 5 v -5 c 0,-2.77 2.23,-5 5,-5 2.77,0 5,2.23 5,5 v 5 c 0,2.77 -2.23,5 -5,5 h -5 v 5 h 5 c 2.77,0 5,2.23 5,5 v 10 c 0,2.77 -2.23,5 -5,5 -2.77,0 -5,-2.23 -5,-5 v -5 h -5 v 5 c 0,5.54 4.46,10 10,10 5.54,0 10,-4.46 10,-10 v -10 c 0,-3.0036 -1.32295,-5.67 -3.40625,-7.5 2.0833,-1.83 3.40625,-4.4964 3.40625,-7.5 v -5 c 0,-5.54 -4.46,-10 -10,-10 z"
         id="rect3163-5-1-4-3-4-0-8"
         style="fill:#ff5555;fill-opacity:1;stroke:none"
         inkscape:connector-curvature="0" />
      <path
         d="m 330,1022.3622 c 5.54,0 10,-4.46 10,-10 v -5 h -5 v 5 c 0,2.77 -2.23,5 -5,5 -2.77,0 -5,-2.23 -5,-5 v -5 c 0,-2.77 2.23,-5 5,-5 h 5 v -5.00002 h -5 c -2.77,0 -5,-2.23 -5,-5.00002 v -10 c 0,-2.77 2.23,-5 5,-5 2.77,0 5,2.23 5,5 v 5 h 5 v -5 c 0,-5.54 -4.46,-10 -10,-10 -5.54,0 -10,4.46 -10,10 v 10 c 0,3.00362 1.32295,5.67002 3.40625,7.50004 -2.0833,1.83 -3.40625,4.4964 -3.40625,7.5 v 5 c 0,5.54 4.46,10 10,10 z"
         id="rect3163-5-1-4-3-4-0-4-2"
         style="fill:#ff5555;fill-opacity:1;stroke:none"
         inkscape:connector-curvature="0" />
      <path
         style="fill:#ff5555;stroke:none"
         d="m 30,602.36218 c 0,0 3,7.5 6.5,12.5 3.5,5 8.5,10 8.5,10 0,0 -5,5 -8.5,10 -3.5,5 -6.5,12.5 -6.5,12.5 0,0 -3,-7.5 -6.5,-12.5 -3.5,-5 -8.5,-10 -8.5,-10 0,0 5,-5 8.5,-10 3.5,-5 6.5,-12.5 6.5,-12.5"
         id="path3204-24-1-52"
         inkscape:connector-curvature="0" />
      <path
         style="fill:#ff5555;stroke:none"
         d="m 330,917.36218 c 0,0 3,7.5 6.5,12.5 3.5,5 8.5,10 8.5,10 0,0 -5,5 -8.5,10 -3.5,5 -6.5,12.5 -6.5,12.5 0,0 -3,-7.5 -6.5,-12.5 -3.5,-5 -8.5,-10 -8.5,-10 0,0 5,-5 8.5,-10 3.5,-5 6.5,-12.5 6.5,-12.5"
         id="path3204-24-1-1-0"
         inkscape:connector-curvature="0" />
      <path
         style="fill:#ff5555;stroke:none"
         d="m 180,557.36218 c 0,0 6,15 13,25 7,10 17,20 17,20 0,0 -10,10 -17,20 -7,10 -13,25 -13,25 0,0 -6,-15 -13,-25 -7,-10 -17,-20 -17,-20 0,0 10,-10 17,-20 7,-10 13,-25 13,-25"
         id="path3204-24-4-3"
         inkscape:connector-curvature="0" />
      <path
         style="fill:#ff5555;stroke:none"
         d="m 180,737.36218 c 0,0 6,15 13,25 7,10 17,20 17,20 0,0 -10,10 -17,20 -7,10 -13,25 -13,25 0,0 -6,-15 -13,-25 -7,-10 -17,-20 -17,-20 0,0 10,-10 17,-20 7,-10 13,-25 13,-25"
         id="path3204-24-72"
         inkscape:connector-curvature="0" />
      <path
         style="fill:#ff5555;stroke:none"
         d="m 180,917.36218 c 0,0 6,15 13,25 7,10 17,20 17,20 0,0 -10,10 -17,20 -7,10 -13,25.00002 -13,25.00002 0,0 -6,-15.00002 -13,-25.00002 -7,-10 -17,-20 -17,-20 0,0 10,-10 17,-20 7,-10 13,-25 13,-25"
         id="path3204-24-0-97"
         inkscape:connector-curvature="0" />
    </g>
  </g>
</svg>
