<?xml version="1.0" encoding="UTF-8" standalone="no"?>
<svg
   xmlns:dc="http://purl.org/dc/elements/1.1/"
   xmlns:cc="http://creativecommons.org/ns#"
   xmlns:rdf="http://www.w3.org/1999/02/22-rdf-syntax-ns#"
   xmlns:svg="http://www.w3.org/2000/svg"
   xmlns="http://www.w3.org/2000/svg"
   xmlns:sodipodi="http://sodipodi.sourceforge.net/DTD/sodipodi-0.dtd"
   xmlns:inkscape="http://www.inkscape.org/namespaces/inkscape"
   id="svg36367"
   version="1.1"
   viewBox="0 0 143.27187 95.646869"
   height="95.646866mm"
   width="143.27187mm"
   sodipodi:docname="2c.svg"
   inkscape:version="0.92.3 (2405546, 2018-03-11)">
  <sodipodi:namedview
     pagecolor="#ffffff"
     bordercolor="#666666"
     borderopacity="1"
     objecttolerance="10"
     gridtolerance="10"
     guidetolerance="10"
     inkscape:pageopacity="0"
     inkscape:pageshadow="2"
     inkscape:window-width="757"
     inkscape:window-height="480"
     id="namedview14"
     showgrid="false"
     inkscape:zoom="0.43582644"
     inkscape:cx="270.74999"
     inkscape:cy="180.74999"
     inkscape:window-x="67"
     inkscape:window-y="27"
     inkscape:window-maximized="0"
     inkscape:current-layer="svg36367" />
  <defs
     id="defs36361" />
  <metadata
     id="metadata36364">
    <rdf:RDF>
      <cc:Work
         rdf:about="">
        <dc:format>image/svg+xml</dc:format>
        <dc:type
           rdf:resource="http://purl.org/dc/dcmitype/StillImage" />
        <dc:title />
      </cc:Work>
    </rdf:RDF>
  </metadata>
  <g
     transform="rotate(-90,90.151949,65.723034)"
     id="layer1">
    <g
       id="g3026"
       transform="matrix(0.26458333,0,0,0.26458333,60.426547,-159.79297)"
       style="display:inline">
      <rect
         style="fill:#ffffff;stroke:#000000;stroke-width:2.5;stroke-miterlimit:4;stroke-dasharray:none"
         id="rect6472-82"
         width="359"
         height="539"
         x="0.5"
         y="512.86218"
         ry="29.944447"
         rx="29.944447" />
      <path
         d="m 30,542.36208 c -5.54,0 -10,4.46 -10,10 v 5 h 5 v -5 c 0,-2.77 2.23,-5 5,-5 2.77,0 5,2.23 5,5 v 5 c 0,1.1275 -0.37508,3.0654 -1,3.9 -4.46327,9.10415 -9.27824,17.12865 -14,26.1 v 5 h 10 10 v -5 -5 h -5 v 5 h -5 -4.5 c 4.48873,-7.91544 8.21831,-15.57184 12.5,-23.6 1.25012,-1.6693 2,-4.1448 2,-6.4 v -5 c 0,-5.54 -4.46,-10 -10,-10 z"
         id="rect3163-52-9-8-1-38-1"
         style="fill:#000000;fill-opacity:1;stroke:none"
         inkscape:connector-curvature="0" />
      <path
         d="m 330,1022.3622 c 5.54,0 10,-4.46 10,-10 v -5 h -5 v 5 c 0,2.77 -2.23,5 -5,5 -2.77,0 -5,-2.23 -5,-5 v -5 c 0,-1.1275 0.37508,-3.0654 1,-3.9 4.46327,-9.10414 9.27824,-17.12864 14,-26.10004 v -5 h -10 -10 v 5 5 h 5 v -5 h 5 4.5 c -4.48873,7.9155 -8.21831,15.5719 -12.5,23.60004 -1.25012,1.6693 -2,4.1448 -2,6.4 v 5 c 0,5.54 4.46,10 10,10 z"
         id="rect3163-52-9-8-1-38-8-6"
         style="fill:#000000;fill-opacity:1;stroke:none"
         inkscape:connector-curvature="0" />
      <path
         style="fill:#000000;fill-opacity:1;stroke:none"
         d="m 32.5,630.36218 c 1,2 3.5,5 6,5 4.5,0 6.5,-4 6.5,-9 0,-5 -2,-9.5 -6.5,-9.5 -2.5,0 -4,2.5 -5.5,4 -0.5,0.5 -1,0 -0.5,-0.5 1.5,-1.5 4,-5.5 4,-9 0,-4 -2.5,-9 -6.5,-9 -4,0 -6.5,5 -6.5,9 0,3.5 2.5,7.5 4,9 0.5,0.5 0,1 -0.5,0.5 -1.5,-1.5 -3,-4 -5.5,-4 -4.5,0 -6.5,4.5 -6.5,9.5 0,5 2,9 6.5,9 2.5,0 5,-3 6,-5 0.5,-0.5 0.5,0 0.5,0.5 -0.5,4 -0.5,5 -1,8 -0.5,3 -2,8.5 -2,8.5 2.5,-1 7.5,-1 10,0 0,0 -1.5,-5.5 -2,-8.5 -0.5,-3 -0.5,-4 -1,-8 0,-0.5 0,-1 0.5,-0.5 z"
         id="path3037-1-83"
         inkscape:connector-curvature="0" />
      <path
         style="fill:#000000;fill-opacity:1;stroke:none"
         d="m 332.5,934.36218 c 1,-2 3.5,-5 6,-5 4.5,0 6.5,4 6.5,9 0,5 -2,9.5 -6.5,9.5 -2.5,0 -4,-2.5 -5.5,-4 -0.5,-0.5 -1,0 -0.5,0.5 1.5,1.5 4,5.5 4,9 0,4 -2.5,9 -6.5,9 -4,0 -6.5,-5 -6.5,-9 0,-3.5 2.5,-7.5 4,-9 0.5,-0.5 0,-1 -0.5,-0.5 -1.5,1.5 -3,4 -5.5,4 -4.5,0 -6.5,-4.5 -6.5,-9.5 0,-5 2,-9 6.5,-9 2.5,0 5,3 6,5 0.5,0.5 0.5,0 0.5,-0.5 -0.5,-4 -0.5,-5 -1,-8 -0.5,-3 -2,-8.5 -2,-8.5 2.5,1 7.5,1 10,0 0,0 -1.5,5.5 -2,8.5 -0.5,3 -0.5,4 -1,8 0,0.5 0,1 0.5,0.5 z"
         id="path3037-1-1-14"
         inkscape:connector-curvature="0" />
      <path
         id="path3037-84"
         d="m 185,613.36218 c 2,4 7,10 12,10 9,0 13,-8 13,-18 0,-10 -4,-19 -13,-19 -5,0 -8,5 -11,8 -1,1 -2,0 -1,-1 3,-3 8,-11 8,-18 0,-8 -5,-18 -13,-18 -8,0 -13,10 -13,18 0,7 5,15 8,18 1,1 0,2 -1,1 -3,-3 -6,-8 -11,-8 -9,0 -13,9 -13,19 0,10 4,18 13,18 5,0 10,-6 12,-10 1,-1 1,0 1,1 -1,8 -1,10 -2,16 -1,6 -4,17 -4,17 5,-2 15,-2 20,0 0,0 -3,-11 -4,-17 -1,-6 -1,-8 -2,-16 0,-1 0,-2 1,-1 z"
         style="fill:#000000;fill-opacity:1;stroke:none"
         inkscape:connector-curvature="0" />
      <path
         id="path3037-7-92"
         d="m 185,951.3622 c 2,-4 7,-10 12,-10 9,0 13,8 13,18 0,10 -4,19 -13,19 -5,0 -8,-5 -11,-8 -1,-1 -2,0 -1,1 3,3 8,11 8,18 0,8 -5,18 -13,18 -8,0 -13,-10 -13,-18 0,-7 5,-15 8,-18 1,-1 0,-2 -1,-1 -3,3 -6,8 -11,8 -9,0 -13,-9 -13,-19 0,-10 4,-18 13,-18 5,0 10,6 12,10 1,1 1,0 1,-1 -1,-8 -1,-10 -2,-16 -1,-6 -4,-17.00002 -4,-17.00002 5,2 15,2 20,0 0,0 -3,11.00002 -4,17.00002 -1,6 -1,8 -2,16 0,1 0,2 1,1 z"
         style="fill:#000000;fill-opacity:1;stroke:none"
         inkscape:connector-curvature="0" />
    </g>
  </g>
</svg>
