<?xml version="1.0" encoding="UTF-8" standalone="no"?>
<svg
   xmlns:dc="http://purl.org/dc/elements/1.1/"
   xmlns:cc="http://creativecommons.org/ns#"
   xmlns:rdf="http://www.w3.org/1999/02/22-rdf-syntax-ns#"
   xmlns:svg="http://www.w3.org/2000/svg"
   xmlns="http://www.w3.org/2000/svg"
   xmlns:sodipodi="http://sodipodi.sourceforge.net/DTD/sodipodi-0.dtd"
   xmlns:inkscape="http://www.inkscape.org/namespaces/inkscape"
   id="svg36367"
   version="1.1"
   viewBox="0 0 143.27187 95.646876"
   height="95.646873mm"
   width="143.27187mm"
   sodipodi:docname="4s.svg"
   inkscape:version="0.92.3 (2405546, 2018-03-11)">
  <sodipodi:namedview
     pagecolor="#ffffff"
     bordercolor="#666666"
     borderopacity="1"
     objecttolerance="10"
     gridtolerance="10"
     guidetolerance="10"
     inkscape:pageopacity="0"
     inkscape:pageshadow="2"
     inkscape:window-width="757"
     inkscape:window-height="480"
     id="namedview2161"
     showgrid="false"
     inkscape:zoom="0.43582644"
     inkscape:cx="270.74998"
     inkscape:cy="180.75001"
     inkscape:window-x="67"
     inkscape:window-y="27"
     inkscape:window-maximized="0"
     inkscape:current-layer="svg36367" />
  <defs
     id="defs36361" />
  <metadata
     id="metadata36364">
    <rdf:RDF>
      <cc:Work
         rdf:about="">
        <dc:format>image/svg+xml</dc:format>
        <dc:type
           rdf:resource="http://purl.org/dc/dcmitype/StillImage" />
        <dc:title />
      </cc:Work>
    </rdf:RDF>
  </metadata>
  <g
     transform="rotate(-90,113.80604,118.07291)"
     id="layer1">
    <g
       id="g3079"
       transform="matrix(0.26458333,0,0,0.26458333,136.43051,-131.09718)"
       style="display:inline">
      <rect
         style="fill:#ffffff;stroke:#000000;stroke-width:2.5;stroke-miterlimit:4;stroke-dasharray:none"
         id="rect6472-2"
         width="359"
         height="539"
         x="0.5"
         y="512.86218"
         ry="29.944447"
         rx="29.944447" />
      <path
         d="m 30,542.36208 -10,35.00001 v 4.99999 h 12 v 10 h 5 v -10 h 3 v -4.99999 H 37 V 562.3621 h -5 v 14.99999 h -6.8 l 9.99999,-35.00001 z"
         id="rect3980-7-6-2-9-9-2"
         style="fill:#000000;fill-opacity:1;stroke:none"
         inkscape:connector-curvature="0" />
      <path
         d="m 330,1022.3622 10,-35.00004 v -5 h -12 v -10 h -5 v 10 h -3 v 5 h 3 v 15.00004 h 5 v -15.00004 h 6.8 l -9.99999,35.00004 z"
         id="rect3980-7-6-2-9-9-8-2"
         style="fill:#000000;fill-opacity:1;stroke:none"
         inkscape:connector-curvature="0" />
      <path
         id="path3037-7-4-7-6"
         d="m 32.5,630.36218 c 0.5,2 2.5,7 6,7 4.5,0 6.5,-4 6.5,-9 0,-3.5 -1.289475,-5.80614 -2.5,-8.5 -1.28894,-2.86836 -3.18966,-5.4287 -5,-8 -2.32265,-3.29895 -7.5,-9.5 -7.5,-9.5 0,0 -5.17735,6.20105 -7.5,9.5 -1.81034,2.5713 -3.71106,5.13164 -5,8 -1.210525,2.69386 -2.5,5 -2.5,8.5 0,5 2,9 6.5,9 3.5,0 5.5,-5 6,-7 0.5,-0.5 0.5,0 0.5,0.5 -0.5,4 -0.5,5 -1,8 -0.5,3 -2,8.5 -2,8.5 2.5,-1 7.5,-1 10,0 0,0 -1.5,-5.5 -2,-8.5 -0.5,-3 -0.5,-4 -1,-8 0,-0.5 0,-1 0.5,-0.5 z"
         style="fill:#000000;fill-opacity:1;stroke:none"
         inkscape:connector-curvature="0" />
      <path
         id="path3037-7-4-4-4"
         d="m 332.5,934.36218 c 0.5,-2 2.5,-7 6,-7 4.5,0 6.5,4 6.5,9 0,3.5 -1.28947,5.80614 -2.5,8.5 -1.28894,2.86836 -3.18966,5.4287 -5,8 -2.32265,3.29895 -7.5,9.5 -7.5,9.5 0,0 -5.17735,-6.20105 -7.5,-9.5 -1.81034,-2.5713 -3.71106,-5.13164 -5,-8 -1.21053,-2.69386 -2.5,-5 -2.5,-8.5 0,-5 2,-9 6.5,-9 3.5,0 5.5,5 6,7 0.5,0.5 0.5,0 0.5,-0.5 -0.5,-4 -0.5,-5 -1,-8 -0.5,-3 -2,-8.5 -2,-8.5 2.5,1 7.5,1 10,0 0,0 -1.5,5.5 -2,8.5 -0.5,3 -0.5,4 -1,8 0,0.5 0,1 0.5,0.5 z"
         style="fill:#000000;fill-opacity:1;stroke:none"
         inkscape:connector-curvature="0" />
      <g
         id="g3027"
         transform="translate(60,557.36218)">
        <path
           id="path3029"
           d="m 35.007873,55.984252 c 0.992126,4.003937 4.996063,14.031496 11.976378,14.031496 9,0 13.003937,-8.007874 13.003937,-18 C 59.988188,45 57.437006,40.393701 54.992125,35.007874 52.405511,29.267717 48.614172,24.129921 44.999999,18.992126 40.358267,12.401575 30.01181,0 30.01181,0 c 0,0 -10.381889,12.401575 -15.023621,18.992126 C 11.374015,24.129921 7.582677,29.267717 4.9960629,35.007874 2.5866141,40.393701 0,45 0,52.015748 c 0,9.992126 4.0039369,18 13.003937,18 6.980314,0 10.984251,-10.027559 12.01181,-14.031496 0.992126,-0.992126 0.992126,0 0.992126,1.027559 -0.992126,7.972441 -0.992126,9.992126 -2.019685,15.980315 C 22.996062,79.015748 19.984251,90 19.984251,90 c 5.031496,-1.984252 15.023622,-1.984252 20.019685,0 0,0 -3.011811,-10.984252 -4.003937,-17.007874 -0.992126,-5.988189 -0.992126,-8.007874 -1.984252,-15.980315 0,-1.027559 0,-2.019685 0.992126,-1.027559 z"
           style="fill:#000000;fill-opacity:1;fill-rule:nonzero;stroke:none"
           inkscape:connector-curvature="0" />
      </g>
      <g
         id="g3041"
         transform="translate(240,557.36218)">
        <path
           id="path3043"
           d="m 35.007873,55.984252 c 0.992126,4.003937 4.996063,14.031496 11.976378,14.031496 9,0 13.003937,-8.007874 13.003937,-18 C 59.988188,45 57.437006,40.393701 54.992125,35.007874 52.405511,29.267717 48.614172,24.129921 44.999999,18.992126 40.358267,12.401575 30.01181,0 30.01181,0 c 0,0 -10.381889,12.401575 -15.023621,18.992126 C 11.374015,24.129921 7.582677,29.267717 4.9960629,35.007874 2.5866141,40.393701 0,45 0,52.015748 c 0,9.992126 4.0039369,18 13.003937,18 6.980314,0 10.984251,-10.027559 12.01181,-14.031496 0.992126,-0.992126 0.992126,0 0.992126,1.027559 -0.992126,7.972441 -0.992126,9.992126 -2.019685,15.980315 C 22.996062,79.015748 19.984251,90 19.984251,90 c 5.031496,-1.984252 15.023622,-1.984252 20.019685,0 0,0 -3.011811,-10.984252 -4.003937,-17.007874 -0.992126,-5.988189 -0.992126,-8.007874 -1.984252,-15.980315 0,-1.027559 0,-2.019685 0.992126,-1.027559 z"
           style="fill:#000000;fill-opacity:1;fill-rule:nonzero;stroke:none"
           inkscape:connector-curvature="0" />
      </g>
      <g
         id="g3055"
         transform="matrix(1,0,0,-1,60,1007.3622)">
        <path
           id="path3057"
           d="m 35.007873,55.984252 c 0.992126,4.003937 4.996063,14.031496 11.976378,14.031496 9,0 13.003937,-8.007874 13.003937,-18 C 59.988188,45 57.437006,40.393701 54.992125,35.007874 52.405511,29.267717 48.614172,24.129921 44.999999,18.992126 40.358267,12.401575 30.01181,0 30.01181,0 c 0,0 -10.381889,12.401575 -15.023621,18.992126 C 11.374015,24.129921 7.582677,29.267717 4.9960629,35.007874 2.5866141,40.393701 0,45 0,52.015748 c 0,9.992126 4.0039369,18 13.003937,18 6.980314,0 10.984251,-10.027559 12.01181,-14.031496 0.992126,-0.992126 0.992126,0 0.992126,1.027559 -0.992126,7.972441 -0.992126,9.992126 -2.019685,15.980315 C 22.996062,79.015748 19.984251,90 19.984251,90 c 5.031496,-1.984252 15.023622,-1.984252 20.019685,0 0,0 -3.011811,-10.984252 -4.003937,-17.007874 -0.992126,-5.988189 -0.992126,-8.007874 -1.984252,-15.980315 0,-1.027559 0,-2.019685 0.992126,-1.027559 z"
           style="fill:#000000;fill-opacity:1;fill-rule:nonzero;stroke:none"
           inkscape:connector-curvature="0" />
      </g>
      <g
         id="g3069"
         transform="matrix(1,0,0,-1,240,1007.3622)">
        <path
           id="path3071"
           d="m 35.007873,55.984252 c 0.992126,4.003937 4.996063,14.031496 11.976378,14.031496 9,0 13.003937,-8.007874 13.003937,-18 C 59.988188,45 57.437006,40.393701 54.992125,35.007874 52.405511,29.267717 48.614172,24.129921 44.999999,18.992126 40.358267,12.401575 30.01181,0 30.01181,0 c 0,0 -10.381889,12.401575 -15.023621,18.992126 C 11.374015,24.129921 7.582677,29.267717 4.9960629,35.007874 2.5866141,40.393701 0,45 0,52.015748 c 0,9.992126 4.0039369,18 13.003937,18 6.980314,0 10.984251,-10.027559 12.01181,-14.031496 0.992126,-0.992126 0.992126,0 0.992126,1.027559 -0.992126,7.972441 -0.992126,9.992126 -2.019685,15.980315 C 22.996062,79.015748 19.984251,90 19.984251,90 c 5.031496,-1.984252 15.023622,-1.984252 20.019685,0 0,0 -3.011811,-10.984252 -4.003937,-17.007874 -0.992126,-5.988189 -0.992126,-8.007874 -1.984252,-15.980315 0,-1.027559 0,-2.019685 0.992126,-1.027559 z"
           style="fill:#000000;fill-opacity:1;fill-rule:nonzero;stroke:none"
           inkscape:connector-curvature="0" />
      </g>
    </g>
  </g>
</svg>
