<?xml version="1.0" encoding="UTF-8" standalone="no"?>
<svg
   xmlns:dc="http://purl.org/dc/elements/1.1/"
   xmlns:cc="http://creativecommons.org/ns#"
   xmlns:rdf="http://www.w3.org/1999/02/22-rdf-syntax-ns#"
   xmlns:svg="http://www.w3.org/2000/svg"
   xmlns="http://www.w3.org/2000/svg"
   xmlns:sodipodi="http://sodipodi.sourceforge.net/DTD/sodipodi-0.dtd"
   xmlns:inkscape="http://www.inkscape.org/namespaces/inkscape"
   id="svg36367"
   version="1.1"
   viewBox="0 0 143.27187 95.646869"
   height="95.646866mm"
   width="143.27187mm"
   sodipodi:docname="6d.svg"
   inkscape:version="0.92.3 (2405546, 2018-03-11)">
  <sodipodi:namedview
     pagecolor="#ffffff"
     bordercolor="#666666"
     borderopacity="1"
     objecttolerance="10"
     gridtolerance="10"
     guidetolerance="10"
     inkscape:pageopacity="0"
     inkscape:pageshadow="2"
     inkscape:window-width="757"
     inkscape:window-height="480"
     id="namedview5831"
     showgrid="false"
     inkscape:zoom="0.43582644"
     inkscape:cx="270.74997"
     inkscape:cy="180.74998"
     inkscape:window-x="67"
     inkscape:window-y="27"
     inkscape:window-maximized="0"
     inkscape:current-layer="svg36367" />
  <defs
     id="defs36361" />
  <metadata
     id="metadata36364">
    <rdf:RDF>
      <cc:Work
         rdf:about="">
        <dc:format>image/svg+xml</dc:format>
        <dc:type
           rdf:resource="http://purl.org/dc/dcmitype/StillImage" />
        <dc:title />
      </cc:Work>
    </rdf:RDF>
  </metadata>
  <g
     transform="rotate(-90,84.815373,138.86146)"
     id="layer1">
    <g
       id="g3015"
       transform="matrix(0.26458333,0,0,0.26458333,128.2284,-81.317964)"
       style="display:inline">
      <rect
         style="fill:#ffffff;stroke:#000000;stroke-width:2.5;stroke-miterlimit:4;stroke-dasharray:none"
         id="rect6472-4"
         width="359"
         height="539"
         x="0.5"
         y="512.86218"
         ry="29.944447"
         rx="29.944447" />
      <path
         d="m 30,542.36208 c -5.54,0 -10,4.46 -10,10 v 20 10 c 0,5.54 4.46,10 10,10 5.54,0 10,-4.46 10,-10 v -10 c 0,-5.54 -4.46,-10 -10,-10 -1.82264,0 -3.53152,0.49855 -5,1.34375 v -11.34375 c 0,-2.77 2.23,-5 5,-5 2.77,0 5,2.23 5,5 v 1 h 5 v -1 c 0,-5.54 -4.46,-10 -10,-10 z m 0,25 c 2.77,0 5,2.23 5,5 v 10 c 0,2.77 -2.23,5 -5,5 -2.77,0 -5,-2.23 -5,-5 v -10 c 0,-2.77 2.23,-5 5,-5 z"
         id="rect3163-7-1-7-3-1"
         style="fill:#ff5555;fill-opacity:1;stroke:none"
         inkscape:connector-curvature="0" />
      <path
         d="m 330,1022.3622 c 5.54,0 10,-4.46 10,-10 v -20.00004 -10 c 0,-5.54 -4.46,-10 -10,-10 -5.54,0 -10,4.46 -10,10 v 10 c 0,5.54004 4.46,10.00004 10,10.00004 1.82264,0 3.53152,-0.4985 5,-1.3437 v 11.3437 c 0,2.77 -2.23,5 -5,5 -2.77,0 -5,-2.23 -5,-5 v -1 h -5 v 1 c 0,5.54 4.46,10 10,10 z m 0,-25 c -2.77,0 -5,-2.23 -5,-5.00004 v -10 c 0,-2.77 2.23,-5 5,-5 2.77,0 5,2.23 5,5 v 10 c 0,2.77004 -2.23,5.00004 -5,5.00004 z"
         id="rect3163-7-1-7-3-1-9"
         style="fill:#ff5555;fill-opacity:1;stroke:none"
         inkscape:connector-curvature="0" />
      <path
         style="fill:#ff5555;stroke:none"
         d="m 90,557.36218 c 0,0 6,15 13,25 7,10 17,20 17,20 0,0 -10,10 -17,20 -7,10 -13,25 -13,25 0,0 -6,-15 -13,-25 -7,-10 -17,-20 -17,-20 0,0 10,-10 17,-20 7,-10 13,-25 13,-25"
         id="path3204-24-1-9"
         inkscape:connector-curvature="0" />
      <path
         style="fill:#ff5555;stroke:none"
         d="m 270,557.36218 c 0,0 6,15 13,25 7,10 17,20 17,20 0,0 -10,10 -17,20 -7,10 -13,25 -13,25 0,0 -6,-15 -13,-25 -7,-10 -17,-20 -17,-20 0,0 10,-10 17,-20 7,-10 13,-25 13,-25"
         id="path3204-24-7-9"
         inkscape:connector-curvature="0" />
      <path
         style="fill:#ff5555;stroke:none"
         d="m 90,737.36218 c 0,0 6,15 13,25 7,10 17,20 17,20 0,0 -10,10 -17,20 -7,10 -13,25 -13,25 0,0 -6,-15 -13,-25 -7,-10 -17,-20 -17,-20 0,0 10,-10 17,-20 7,-10 13,-25 13,-25"
         id="path3204-24-25"
         inkscape:connector-curvature="0" />
      <path
         style="fill:#ff5555;stroke:none"
         d="m 270,737.36218 c 0,0 6,15 13,25 7,10 17,20 17,20 0,0 -10,10 -17,20 -7,10 -13,25 -13,25 0,0 -6,-15 -13,-25 -7,-10 -17,-20 -17,-20 0,0 10,-10 17,-20 7,-10 13,-25 13,-25"
         id="path3204-24-4-5"
         inkscape:connector-curvature="0" />
      <path
         style="fill:#ff5555;stroke:none"
         d="m 90,917.36218 c 0,0 6,15 13,25 7,10 17,20 17,20 0,0 -10,10 -17,20 -7,10 -13,25.00002 -13,25.00002 0,0 -6,-15.00002 -13,-25.00002 -7,-10 -17,-20 -17,-20 0,0 10,-10 17,-20 7,-10 13,-25 13,-25"
         id="path3204-24-0-3"
         inkscape:connector-curvature="0" />
      <path
         style="fill:#ff5555;stroke:none"
         d="m 270,917.36218 c 0,0 6,15 13,25 7,10 17,20 17,20 0,0 -10,10 -17,20 -7,10 -13,25.00002 -13,25.00002 0,0 -6,-15.00002 -13,-25.00002 -7,-10 -17,-20 -17,-20 0,0 10,-10 17,-20 7,-10 13,-25 13,-25"
         id="path3204-24-9-33"
         inkscape:connector-curvature="0" />
      <path
         style="fill:#ff5555;stroke:none"
         d="m 30,602.36218 c 0,0 3,7.5 6.5,12.5 3.5,5 8.5,10 8.5,10 0,0 -5,5 -8.5,10 -3.5,5 -6.5,12.5 -6.5,12.5 0,0 -3,-7.5 -6.5,-12.5 -3.5,-5 -8.5,-10 -8.5,-10 0,0 5,-5 8.5,-10 3.5,-5 6.5,-12.5 6.5,-12.5"
         id="path3204-24-1-4-7"
         inkscape:connector-curvature="0" />
      <path
         style="fill:#ff5555;stroke:none"
         d="m 330,917.36218 c 0,0 3,7.5 6.5,12.5 3.5,5 8.5,10 8.5,10 0,0 -5,5 -8.5,10 -3.5,5 -6.5,12.5 -6.5,12.5 0,0 -3,-7.5 -6.5,-12.5 -3.5,-5 -8.5,-10 -8.5,-10 0,0 5,-5 8.5,-10 3.5,-5 6.5,-12.5 6.5,-12.5"
         id="path3204-24-1-8-4"
         inkscape:connector-curvature="0" />
    </g>
  </g>
</svg>
